<?xml version="1.0" standalone="no"?>
<!DOCTYPE svg PUBLIC "-//W3C//DTD SVG 20010904//EN"
 "http://www.w3.org/TR/2001/REC-SVG-20010904/DTD/svg10.dtd">
<svg version="1.0" xmlns="http://www.w3.org/2000/svg"
 width="639.000000pt" height="639.000000pt" viewBox="0 0 639.000000 639.000000"
 preserveAspectRatio="xMidYMid meet">
<metadata>
Created by potrace 1.11, written by Peter Selinger 2001-2013
</metadata>
<g transform="translate(0.000000,639.000000) scale(0.100000,-0.100000)"
fill="#000000" stroke="none">
<path d="M2939 5976 c-2 -2 -32 -6 -66 -9 -370 -35 -755 -218 -1023 -487 -166
-165 -243 -273 -380 -535 -256 -486 -597 -985 -888 -1295 -46 -49 -190 -247
-244 -335 -178 -293 -293 -638 -327 -985 -13 -134 -6 -422 13 -527 125 -694
648 -1237 1327 -1379 125 -26 230 -33 419 -29 113 2 216 6 230 9 14 2 48 7 75
10 43 5 208 33 300 51 98 20 288 77 418 127 l78 30 85 -37 c282 -121 577 -183
899 -190 416 -8 802 83 1165 277 249 132 390 244 715 567 331 329 357 357 437
480 142 218 217 472 216 741 0 469 -229 883 -623 1128 -82 51 -284 141 -345
154 -14 3 -56 13 -95 21 -123 27 -305 36 -428 21 -29 -4 -63 -7 -76 -8 l-24
-1 -2 300 c-2 363 -16 472 -86 693 -105 331 -357 684 -614 862 -27 19 -52 37
-55 40 -12 14 -142 91 -208 124 -173 87 -350 141 -562 172 -49 7 -325 15 -331
10z"/>
</g>
</svg>
