<svg xmlns="http://www.w3.org/2000/svg" width="11.759" height="11.759" viewBox="0 0 11.759 11.759">
  <g id="Web" transform="translate(0)">
    <path id="Path_4" data-name="Path 4" d="M1.764,1.764A5.338,5.338,0,0,1,5.88,0,5.338,5.338,0,0,1,10,1.764,5.338,5.338,0,0,1,11.759,5.88,5.338,5.338,0,0,1,10,10,5.338,5.338,0,0,1,5.88,11.759,5.338,5.338,0,0,1,1.764,10,5.868,5.868,0,0,1,0,5.88,5.338,5.338,0,0,1,1.764,1.764Zm4.9,8.819A2.408,2.408,0,0,0,8.134,9.7a4.28,4.28,0,0,0,.686-2.058,1.623,1.623,0,0,0-.49-1.176A1.725,1.725,0,0,0,7.056,5.88h-.98a2.861,2.861,0,0,1-.882-.2A.89.89,0,0,1,4.9,5a.509.509,0,0,1,.2-.392.743.743,0,0,1,.392-.2.669.669,0,0,1,.49.294c.2.1.294.2.392.2a.589.589,0,0,0,.392-.1.589.589,0,0,0,.1-.392,1.559,1.559,0,0,0-.49-.98,4.053,4.053,0,0,0,.49-1.862.211.211,0,0,0-.2-.2,3.029,3.029,0,0,0-.784-.2,4.9,4.9,0,0,0-2.548.784A2.467,2.467,0,0,0,2.45,3.92a2.509,2.509,0,0,0,.784,1.862A2.677,2.677,0,0,0,5.1,6.566h0v.392a1.258,1.258,0,0,0,.392.98,1.427,1.427,0,0,0,.882.588v1.764c0,.1,0,.1.1.2S6.566,10.583,6.664,10.583Z" transform="translate(0 0)" fill="#633720"/>
  </g>
</svg>
