<svg xmlns="http://www.w3.org/2000/svg" width="11.41" height="11.455" viewBox="0 0 11.41 11.455"><defs><style>.a{fill:#633720;}</style></defs><g transform="translate(0 0)"><path class="a" d="M44.145,9.388a1.808,1.808,0,0,0-1.3-.558,1.9,1.9,0,0,0-.4.043.446.446,0,0,1-.4-.121L37.742,4.446a.443.443,0,0,1-.12-.409,1.8,1.8,0,0,0-.508-1.725,2.191,2.191,0,0,0-2.41-.465l-.162.069L35.8,3.175l-.919.919L33.623,2.835,33.553,3a2.19,2.19,0,0,0,.465,2.41,1.808,1.808,0,0,0,1.3.558,1.9,1.9,0,0,0,.4-.043.428.428,0,0,1,.09-.01.446.446,0,0,1,.313.131l4.307,4.307a.443.443,0,0,1,.12.41,1.8,1.8,0,0,0,.508,1.725,2.191,2.191,0,0,0,2.41.465l.162-.069L42.362,11.62l.919-.919L44.54,11.96l.069-.162a2.19,2.19,0,0,0-.465-2.41Z" transform="translate(-33.377 -1.67)"/></g></svg>